<mxfile host="drawio-plugin" agent="Mozilla/5.0 (Windows NT 10.0; Win64; x64) AppleWebKit/537.36 (KHTML, like Gecko) Chrome/122.0.0.0 Safari/537.36" modified="2024-09-04T15:56:35.737Z" etag="bn1lldrkHq7N06kGFQH5" version="22.1.22" type="embed">
  <diagram name="Page-1" id="Npc_-tGWzgNIA4RKaG8w">
    <mxGraphModel dx="1585" dy="1493" grid="1" gridSize="10" guides="1" tooltips="1" connect="1" arrows="1" fold="1" page="1" pageScale="1" pageWidth="850" pageHeight="1100" math="0" shadow="0">
      <root>
        <mxCell id="0" />
        <mxCell id="1" parent="0" />
        <mxCell id="41" value="" style="edgeStyle=orthogonalEdgeStyle;rounded=0;orthogonalLoop=1;jettySize=auto;html=1;" parent="1" source="AxF9C2si8Uuf9T120KTa-1" edge="1">
          <mxGeometry relative="1" as="geometry">
            <mxPoint x="280" y="-60" as="targetPoint" />
          </mxGeometry>
        </mxCell>
        <mxCell id="AxF9C2si8Uuf9T120KTa-1" value="Start" style="rounded=1;whiteSpace=wrap;html=1;" parent="1" vertex="1">
          <mxGeometry x="220" y="-180" width="120" height="60" as="geometry" />
        </mxCell>
        <mxCell id="48" value="" style="edgeStyle=orthogonalEdgeStyle;rounded=0;orthogonalLoop=1;jettySize=auto;html=1;" parent="1" source="8" target="9" edge="1">
          <mxGeometry relative="1" as="geometry" />
        </mxCell>
        <mxCell id="8" value="&quot;Please enter 3 a,b,c numbers and isSum&quot;" style="shape=card;whiteSpace=wrap;html=1;" parent="1" vertex="1">
          <mxGeometry x="220" y="-10" width="140" height="100" as="geometry" />
        </mxCell>
        <mxCell id="11" value="" style="edgeStyle=orthogonalEdgeStyle;rounded=0;orthogonalLoop=1;jettySize=auto;html=1;" parent="1" source="9" edge="1">
          <mxGeometry relative="1" as="geometry">
            <mxPoint x="400" y="250.090909090909" as="targetPoint" />
          </mxGeometry>
        </mxCell>
        <mxCell id="15" value="" style="edgeStyle=orthogonalEdgeStyle;rounded=0;orthogonalLoop=1;jettySize=auto;html=1;entryX=0.927;entryY=0.51;entryDx=0;entryDy=0;entryPerimeter=0;exitX=0;exitY=0.5;exitDx=0;exitDy=0;" parent="1" source="9" edge="1">
          <mxGeometry relative="1" as="geometry">
            <mxPoint x="249" y="240" as="sourcePoint" />
            <mxPoint x="-18.029999999999973" y="240" as="targetPoint" />
          </mxGeometry>
        </mxCell>
        <mxCell id="9" value="a&amp;gt;b&amp;nbsp;&lt;br&gt;and&lt;br&gt;&amp;nbsp;a&amp;gt;c" style="rhombus;whiteSpace=wrap;html=1;" parent="1" vertex="1">
          <mxGeometry x="230" y="130" width="100" height="100" as="geometry" />
        </mxCell>
        <mxCell id="12" value="yes" style="text;html=1;align=center;verticalAlign=middle;resizable=0;points=[];autosize=1;strokeColor=none;fillColor=none;" parent="1" vertex="1">
          <mxGeometry x="340" y="208" width="40" height="30" as="geometry" />
        </mxCell>
        <mxCell id="25" value="" style="edgeStyle=orthogonalEdgeStyle;rounded=0;orthogonalLoop=1;jettySize=auto;html=1;entryX=0;entryY=0.5;entryDx=0;entryDy=0;" parent="1" source="13" target="30" edge="1">
          <mxGeometry relative="1" as="geometry">
            <mxPoint x="-74" y="369" as="targetPoint" />
          </mxGeometry>
        </mxCell>
        <mxCell id="13" value="b&amp;gt;c" style="rhombus;whiteSpace=wrap;html=1;" parent="1" vertex="1">
          <mxGeometry x="-129" y="189" width="110" height="100" as="geometry" />
        </mxCell>
        <mxCell id="19" value="yes" style="text;html=1;align=center;verticalAlign=middle;resizable=0;points=[];autosize=1;strokeColor=none;fillColor=none;" parent="1" vertex="1">
          <mxGeometry x="-190" y="208" width="40" height="30" as="geometry" />
        </mxCell>
        <mxCell id="28" value="no" style="text;html=1;align=center;verticalAlign=middle;resizable=0;points=[];autosize=1;strokeColor=none;fillColor=none;" parent="1" vertex="1">
          <mxGeometry x="-42" y="308" width="40" height="30" as="geometry" />
        </mxCell>
        <mxCell id="58" style="edgeStyle=orthogonalEdgeStyle;rounded=0;orthogonalLoop=1;jettySize=auto;html=1;entryX=0.5;entryY=0;entryDx=0;entryDy=0;" parent="1" source="30" target="56" edge="1">
          <mxGeometry relative="1" as="geometry" />
        </mxCell>
        <mxCell id="30" value="c" style="shape=document;whiteSpace=wrap;html=1;boundedLbl=1;" parent="1" vertex="1">
          <mxGeometry x="60" y="308" width="120" height="80" as="geometry" />
        </mxCell>
        <mxCell id="47" style="edgeStyle=orthogonalEdgeStyle;rounded=0;orthogonalLoop=1;jettySize=auto;html=1;entryX=0.391;entryY=-0.034;entryDx=0;entryDy=0;entryPerimeter=0;" parent="1" target="8" edge="1">
          <mxGeometry relative="1" as="geometry">
            <mxPoint x="280" y="-60" as="sourcePoint" />
          </mxGeometry>
        </mxCell>
        <mxCell id="59" style="edgeStyle=orthogonalEdgeStyle;rounded=0;orthogonalLoop=1;jettySize=auto;html=1;entryX=1;entryY=0;entryDx=0;entryDy=0;" parent="1" source="53" target="56" edge="1">
          <mxGeometry relative="1" as="geometry" />
        </mxCell>
        <mxCell id="53" value="a" style="shape=document;whiteSpace=wrap;html=1;boundedLbl=1;" parent="1" vertex="1">
          <mxGeometry x="365" y="258" width="120" height="80" as="geometry" />
        </mxCell>
        <mxCell id="54" value="" style="edgeStyle=orthogonalEdgeStyle;rounded=0;orthogonalLoop=1;jettySize=auto;html=1;" parent="1" source="13" target="22" edge="1">
          <mxGeometry relative="1" as="geometry">
            <mxPoint x="-129" y="239" as="sourcePoint" />
            <mxPoint x="-209" y="239" as="targetPoint" />
          </mxGeometry>
        </mxCell>
        <mxCell id="57" style="edgeStyle=orthogonalEdgeStyle;rounded=0;orthogonalLoop=1;jettySize=auto;html=1;entryX=0;entryY=0.5;entryDx=0;entryDy=0;" parent="1" source="22" target="56" edge="1">
          <mxGeometry relative="1" as="geometry">
            <Array as="points">
              <mxPoint x="-260" y="430" />
              <mxPoint x="-30" y="430" />
              <mxPoint x="-30" y="580" />
            </Array>
          </mxGeometry>
        </mxCell>
        <mxCell id="22" value="b" style="shape=document;whiteSpace=wrap;html=1;boundedLbl=1;" parent="1" vertex="1">
          <mxGeometry x="-320" y="199" width="120" height="80" as="geometry" />
        </mxCell>
        <mxCell id="56" value="End" style="rounded=1;whiteSpace=wrap;html=1;" parent="1" vertex="1">
          <mxGeometry x="140" y="550" width="120" height="60" as="geometry" />
        </mxCell>
      </root>
    </mxGraphModel>
  </diagram>
</mxfile>
